<svg id="Layer_1" data-name="Layer 1" xmlns="http://www.w3.org/2000/svg" viewBox="0 0 818.4 351.83"><defs><style>.cls-1{fill:#082c49;}.cls-2{fill:#5fc97e;}</style></defs><path class="cls-1" d="M811.46,77.17H762.53l-1.1,3.32L716.16,217.16l-43-136.22-1.07-3.39h-58L616.45,84l72,201.66-1.15,3.36c-4.76,14.26-10,18.38-23.35,18.38H635.74v44.4h34.5c33.41,0,52.79-13.77,64.8-46L816,83.68l2.38-6.51Z"/><path class="cls-1" d="M601.25,121.66H608l-2.17-6.41L594.07,80.46,593,77.17H561.06V0H509V77.17H477.61v44.49H509V232.93c0,46.86,42.28,46.86,56.17,46.86,15.74,0,36.12-2,37-2.11l4.37-.44V232.12l-5.51.75a183.45,183.45,0,0,1-24.67,1.67h-.51c-12.87,0-14.64-5.2-14.64-10.83V121.66Z"/><polygon class="cls-1" points="413.29 1.04 408.43 1.04 408.43 5.9 408.43 273.23 408.43 278.08 413.29 278.08 455.1 278.08 459.95 278.08 459.95 273.23 459.95 5.9 459.95 1.04 455.1 1.04 413.29 1.04"/><path class="cls-1" d="M384.68,195.4l0-6.5c-.17-37.42-10.92-68.07-31.12-88.68-18-18.36-43.43-28.47-71.62-28.47h0c-59.36.3-102.43,44.75-102.43,105.68,0,61.24,43.6,105.69,103.69,105.69,1.11,0,2.41.07,3.71.07a102.65,102.65,0,0,0,93.56-60.63l3-6.65-7.28-.19-47.52-1.23-2.59-.07-1.5,2.12a47.38,47.38,0,0,1-38.66,20.05c-.7,0-1.4,0-2.11-.05h-.58a48.73,48.73,0,0,1-48.14-41.14H384.68Zm-57.63-40.69h-91.9a47.72,47.72,0,0,1,46.18-36.1h1.75A45.11,45.11,0,0,1,327.05,154.71Z"/><polygon class="cls-1" points="4.86 77.17 0 77.17 0 82.02 0 116.8 0 121.66 4.86 121.66 150.63 121.66 154.02 77.17 4.86 77.17"/><polygon class="cls-1" points="65.99 233.59 16.13 233.59 12.72 278.08 162.13 278.08 166.99 278.08 166.99 273.23 166.99 238.44 166.99 233.59 162.13 233.59 65.99 233.59"/><path class="cls-2" d="M7.08,155.37H204.17a0,0,0,0,1,0,0v0a44.49,44.49,0,0,1-44.49,44.49H-37.41a0,0,0,0,1,0,0v0A44.49,44.49,0,0,1,7.08,155.37Z" transform="translate(-100.52 109.21) rotate(-44.45)"/></svg>